<svg width="494" height="59" viewBox="0 0 494 59" fill="none" xmlns="http://www.w3.org/2000/svg">
<path d="M17.12 58L0.32 2H14.16L22.56 31.44C22.9333 32.7733 23.2533 34.1333 23.52 35.52C23.84 36.8533 24.08 38.1333 24.24 39.36C24.4533 40.5867 24.6133 41.7333 24.72 42.8C24.8267 43.8133 24.9333 44.6667 25.04 45.36H23.28C23.6 43.3867 23.8667 41.6267 24.08 40.08C24.3467 38.5333 24.64 37.0933 24.96 35.76C25.28 34.3733 25.68 32.9333 26.16 31.44L34.48 9.28H45.36L53.52 31.44C54.16 33.2 54.6933 34.8533 55.12 36.4C55.5467 37.9467 55.8667 39.44 56.08 40.88C56.3467 42.2667 56.56 43.6533 56.72 45.04L55.12 45.28C55.2267 44.32 55.3067 43.44 55.36 42.64C55.4133 41.7867 55.4667 40.9867 55.52 40.24C55.6267 39.44 55.7333 38.6133 55.84 37.76C55.9467 36.9067 56.1067 35.9733 56.32 34.96C56.5333 33.8933 56.8267 32.6933 57.2 31.36L65.52 2H79.04L62.24 58H51.84L38.56 25.76L40.08 25.92L27.84 58H17.12ZM86.4931 58V2H125.533V13.6H99.6931V46.4H126.333V58H86.4931ZM92.8931 35.04V24H121.933V35.04H92.8931ZM138.056 58V2H162.776C166.616 2 169.869 2.56 172.536 3.68C175.202 4.74666 177.202 6.32 178.536 8.4C179.922 10.4267 180.616 12.88 180.616 15.76C180.616 18.96 179.816 21.6533 178.216 23.84C176.669 26.0267 174.402 27.4933 171.416 28.24L171.256 26.72C173.762 27.2533 175.922 28.1867 177.736 29.52C179.602 30.8533 181.042 32.5067 182.056 34.48C183.069 36.4 183.576 38.5867 183.576 41.04C183.576 43.8667 183.096 46.3467 182.136 48.48C181.176 50.56 179.789 52.32 177.976 53.76C176.162 55.2 174.029 56.2667 171.576 56.96C169.176 57.6533 166.509 58 163.576 58H138.056ZM150.856 46.64H163.096C164.589 46.64 165.842 46.4 166.856 45.92C167.922 45.44 168.749 44.7467 169.336 43.84C169.922 42.88 170.216 41.7333 170.216 40.4C170.216 39.1733 169.896 38.1333 169.256 37.28C168.669 36.4267 167.816 35.7867 166.696 35.36C165.576 34.88 164.242 34.64 162.696 34.64H150.856V46.64ZM150.856 24.48H160.856C162.242 24.48 163.416 24.2667 164.376 23.84C165.389 23.36 166.136 22.72 166.616 21.92C167.149 21.0667 167.416 20.0533 167.416 18.88C167.416 17.1733 166.829 15.84 165.656 14.88C164.482 13.8667 162.722 13.36 160.376 13.36H150.856V24.48ZM203.761 58L186.961 2H200.801L209.201 31.44C209.574 32.7733 209.894 34.1333 210.161 35.52C210.481 36.8533 210.721 38.1333 210.881 39.36C211.094 40.5867 211.254 41.7333 211.361 42.8C211.467 43.8133 211.574 44.6667 211.681 45.36H209.921C210.241 43.3867 210.507 41.6267 210.721 40.08C210.987 38.5333 211.281 37.0933 211.601 35.76C211.921 34.3733 212.321 32.9333 212.801 31.44L221.121 9.28H232.001L240.161 31.44C240.801 33.2 241.334 34.8533 241.761 36.4C242.187 37.9467 242.507 39.44 242.721 40.88C242.987 42.2667 243.201 43.6533 243.361 45.04L241.761 45.28C241.867 44.32 241.947 43.44 242.001 42.64C242.054 41.7867 242.107 40.9867 242.161 40.24C242.267 39.44 242.374 38.6133 242.481 37.76C242.587 36.9067 242.747 35.9733 242.961 34.96C243.174 33.8933 243.467 32.6933 243.841 31.36L252.161 2H265.681L248.881 58H238.481L225.201 25.76L226.721 25.92L214.481 58H203.761ZM298.263 58.8C293.996 58.8 290.103 58.08 286.583 56.64C283.063 55.2 279.996 53.1733 277.383 50.56C274.77 47.9467 272.743 44.88 271.303 41.36C269.863 37.84 269.143 33.9733 269.143 29.76C269.143 25.5467 269.863 21.68 271.303 18.16C272.743 14.64 274.77 11.5733 277.383 8.96C279.996 6.34666 283.063 4.32 286.583 2.88C290.103 1.44 293.97 0.719998 298.183 0.719998C302.396 0.719998 306.263 1.44 309.783 2.88C313.303 4.32 316.37 6.34666 318.983 8.96C321.596 11.5733 323.596 14.64 324.983 18.16C326.423 21.68 327.143 25.5467 327.143 29.76C327.143 33.92 326.423 37.7867 324.983 41.36C323.596 44.88 321.596 47.9467 318.983 50.56C316.37 53.1733 313.303 55.2 309.783 56.64C306.263 58.08 302.423 58.8 298.263 58.8ZM298.183 46C300.37 46 302.37 45.6 304.183 44.8C306.05 44 307.65 42.88 308.983 41.44C310.37 39.9467 311.436 38.2133 312.183 36.24C312.93 34.2667 313.303 32.1067 313.303 29.76C313.303 27.4133 312.93 25.2533 312.183 23.28C311.436 21.3067 310.37 19.6 308.983 18.16C307.65 16.6667 306.05 15.52 304.183 14.72C302.37 13.92 300.37 13.52 298.183 13.52C295.996 13.52 293.97 13.92 292.103 14.72C290.29 15.52 288.69 16.6667 287.303 18.16C285.916 19.6 284.85 21.3067 284.103 23.28C283.41 25.2533 283.063 27.4133 283.063 29.76C283.063 32.1067 283.41 34.2933 284.103 36.32C284.85 38.2933 285.916 40 287.303 41.44C288.69 42.88 290.29 44 292.103 44.8C293.97 45.6 295.996 46 298.183 46ZM337.665 58V2H362.865C366.438 2 369.665 2.77333 372.545 4.32C375.478 5.86667 377.772 8 379.425 10.72C381.078 13.3867 381.905 16.4267 381.905 19.84C381.905 23.36 381.078 26.5333 379.425 29.36C377.772 32.1333 375.505 34.32 372.625 35.92C369.745 37.52 366.492 38.32 362.865 38.32H350.625V58H337.665ZM368.705 58L354.465 32.72L368.385 30.72L384.225 58H368.705ZM350.625 27.92H361.665C363.052 27.92 364.252 27.6267 365.265 27.04C366.332 26.4 367.132 25.52 367.665 24.4C368.252 23.28 368.545 22 368.545 20.56C368.545 19.12 368.225 17.8667 367.585 16.8C366.945 15.68 366.012 14.8267 364.785 14.24C363.612 13.6533 362.172 13.36 360.465 13.36H350.625V27.92ZM393.837 58V2H407.437V46H432.397V58H393.837ZM442.587 58V2H466.027C470.134 2 473.894 2.69333 477.307 4.08C480.72 5.41333 483.654 7.33333 486.107 9.84C488.614 12.3467 490.534 15.3067 491.867 18.72C493.2 22.1333 493.867 25.8933 493.867 30C493.867 34.1067 493.2 37.8933 491.867 41.36C490.534 44.7733 488.614 47.7333 486.107 50.24C483.654 52.6933 480.72 54.6133 477.307 56C473.894 57.3333 470.134 58 466.027 58H442.587ZM456.187 48.72L454.347 46H465.627C467.867 46 469.867 45.6267 471.627 44.88C473.387 44.08 474.88 42.9867 476.107 41.6C477.387 40.2133 478.374 38.5333 479.067 36.56C479.76 34.5867 480.107 32.4 480.107 30C480.107 27.6 479.76 25.4133 479.067 23.44C478.374 21.4667 477.387 19.7867 476.107 18.4C474.88 17.0133 473.387 15.9467 471.627 15.2C469.867 14.4 467.867 14 465.627 14H454.107L456.187 11.44V48.72Z" fill="url(#paint0_linear_6_2)"/>
<defs>
<linearGradient id="paint0_linear_6_2" x1="267" y1="-22" x2="267" y2="162" gradientUnits="userSpaceOnUse">
<stop offset="0.285" stop-color="#E8EAA1"/>
<stop offset="0.425" stop-color="white" stop-opacity="0.37"/>
</linearGradient>
</defs>
</svg>
