<svg width="712" height="115" viewBox="0 0 712 115" fill="none" xmlns="http://www.w3.org/2000/svg">
<path d="M61.6018 34.472L18.7018 59.552L61.6018 84.104L52.0978 99.02L0.749766 67.076V52.16L52.3618 20.084L61.6018 34.472ZM575.553 107.765L627.213 0.508996L642.219 7.51999L590.682 114.776L575.553 107.765ZM711.051 55.367V69.389L663.081 99.155L654.348 85.871L694.2 62.378L654.348 39.623L662.958 25.601L711.051 55.367Z" fill="#E36414"/>
<path d="M74.0566 42.3477C73.5488 40.4336 74.0762 39.4766 75.6387 39.4766H81.791C83.1973 39.4766 84.0762 40.2383 84.4277 41.7617L93.041 80.4336C93.3145 81.5664 93.7246 83.3438 94.2715 85.7656C94.8574 88.1875 95.2676 89.9648 95.502 91.0977H95.7363C95.9316 90.0039 96.2637 88.3633 96.7324 86.1758C97.2402 83.9883 97.709 82.0742 98.1387 80.4336L108.451 41.7617C108.842 40.2383 109.721 39.4766 111.088 39.4766H116.361C117.729 39.4766 118.607 40.2383 118.998 41.7617L129.311 80.4336C129.74 82.0742 130.189 83.9883 130.658 86.1758C131.166 88.3633 131.518 90.0039 131.713 91.0977H131.947C132.182 89.9648 132.572 88.1875 133.119 85.7656C133.705 83.3438 134.135 81.5664 134.408 80.4336L143.021 41.7617C143.373 40.2383 144.252 39.4766 145.658 39.4766H151.811C153.373 39.4766 153.9 40.4336 153.393 42.3477L138.861 97.4258C138.236 99.8086 137.182 101 135.697 101H128.666C127.182 101 126.127 99.8086 125.502 97.4258L115.541 58.6953C114.838 55.9609 114.389 54.0469 114.193 52.9531C114.037 51.8594 113.9 50.8242 113.783 49.8477H113.666C113.549 50.8242 113.393 51.8594 113.197 52.9531C113.041 54.0469 112.611 55.9609 111.908 58.6953L101.947 97.4258C101.322 99.8086 100.268 101 98.7832 101H91.752C90.2676 101 89.2129 99.8086 88.5879 97.4258L74.0566 42.3477ZM160.248 70.2383C160.248 60.5508 162.67 52.8359 167.514 47.0938C172.357 41.3516 179.291 38.4805 188.314 38.4805C195.814 38.4805 202.025 41.1172 206.947 46.3906C211.908 51.625 214.389 60.0039 214.389 71.5273C214.389 73.2852 213.588 74.1641 211.986 74.1641H171.146C171.811 81.7031 173.842 86.957 177.24 89.9258C180.639 92.8555 184.486 94.3203 188.783 94.3203C193.314 94.3203 196.791 93.5586 199.213 92.0352C201.635 90.5117 203.412 89.0078 204.545 87.5234C205.795 85.8828 207.006 85.5703 208.178 86.5859L211.635 89.5742C212.533 90.3555 212.533 91.4297 211.635 92.7969C210.893 93.9297 208.764 95.7461 205.248 98.2461C201.771 100.746 196.283 101.996 188.783 101.996C179.018 101.996 171.811 99.125 167.162 93.3828C162.553 87.6406 160.248 79.9258 160.248 70.2383ZM170.912 66.5469H204.018C203.861 61.0781 202.455 56.293 199.799 52.1914C197.143 48.0508 193.236 45.9805 188.08 45.9805C183.549 45.9805 179.701 47.5039 176.537 50.5508C173.373 53.5586 171.498 58.8906 170.912 66.5469ZM230.561 101C228.803 101 227.924 100.121 227.924 98.3633V17.1523C227.924 15.3945 228.803 14.5156 230.561 14.5156H235.6C237.357 14.5156 238.236 15.3945 238.236 17.1523V43.2266C238.236 44.4375 238.197 45.6289 238.119 46.8008H238.236C240.385 44.2227 242.807 42.1914 245.502 40.707C248.197 39.2227 251.791 38.4805 256.283 38.4805C264.096 38.4805 270.033 41.6836 274.096 48.0898C278.158 54.457 280.189 61.8398 280.189 70.2383C280.189 78.6367 278.158 86.0391 274.096 92.4453C270.033 98.8125 264.096 101.996 256.283 101.996C251.791 101.996 248.197 101.254 245.502 99.7695C242.807 98.2852 240.385 96.2539 238.236 93.6758H238.119L237.768 98.3633C237.65 100.121 236.889 101 235.482 101H230.561ZM238.236 76.9766C238.236 82.8359 239.623 87.2109 242.396 90.1016C245.209 92.9531 248.725 94.3789 252.943 94.3789C258.881 94.3789 263.08 92.1523 265.541 87.6992C268.041 83.2461 269.291 77.4258 269.291 70.2383C269.291 63.0508 268.041 57.2305 265.541 52.7773C263.08 48.3242 258.881 46.0977 252.943 46.0977C248.725 46.0977 245.209 47.543 242.396 50.4336C239.623 53.2852 238.236 57.6406 238.236 63.5V76.9766ZM288.627 42.3477C288.119 40.4336 288.646 39.4766 290.209 39.4766H296.361C297.768 39.4766 298.646 40.2383 298.998 41.7617L307.611 80.4336C307.885 81.5664 308.295 83.3438 308.842 85.7656C309.428 88.1875 309.838 89.9648 310.072 91.0977H310.307C310.502 90.0039 310.834 88.3633 311.303 86.1758C311.811 83.9883 312.279 82.0742 312.709 80.4336L323.021 41.7617C323.412 40.2383 324.291 39.4766 325.658 39.4766H330.932C332.299 39.4766 333.178 40.2383 333.568 41.7617L343.881 80.4336C344.311 82.0742 344.76 83.9883 345.229 86.1758C345.736 88.3633 346.088 90.0039 346.283 91.0977H346.518C346.752 89.9648 347.143 88.1875 347.689 85.7656C348.275 83.3438 348.705 81.5664 348.979 80.4336L357.592 41.7617C357.943 40.2383 358.822 39.4766 360.229 39.4766H366.381C367.943 39.4766 368.471 40.4336 367.963 42.3477L353.432 97.4258C352.807 99.8086 351.752 101 350.268 101H343.236C341.752 101 340.697 99.8086 340.072 97.4258L330.111 58.6953C329.408 55.9609 328.959 54.0469 328.764 52.9531C328.607 51.8594 328.471 50.8242 328.354 49.8477H328.236C328.119 50.8242 327.963 51.8594 327.768 52.9531C327.611 54.0469 327.182 55.9609 326.479 58.6953L316.518 97.4258C315.893 99.8086 314.838 101 313.354 101H306.322C304.838 101 303.783 99.8086 303.158 97.4258L288.627 42.3477ZM374.818 70.2383C374.818 61.0586 377.24 53.4805 382.084 47.5039C386.967 41.4883 394.096 38.4805 403.471 38.4805C412.846 38.4805 419.955 41.4883 424.799 47.5039C429.682 53.4805 432.123 61.0586 432.123 70.2383C432.123 79.418 429.682 87.0156 424.799 93.0312C419.955 99.0078 412.846 101.996 403.471 101.996C394.096 101.996 386.967 99.0078 382.084 93.0312C377.24 87.0156 374.818 79.418 374.818 70.2383ZM385.717 70.2383C385.717 78.4414 387.338 84.5156 390.58 88.4609C393.822 92.4062 398.119 94.3789 403.471 94.3789C408.822 94.3789 413.119 92.4062 416.361 88.4609C419.604 84.5156 421.225 78.4414 421.225 70.2383C421.225 62.0352 419.604 55.9609 416.361 52.0156C413.119 48.0703 408.822 46.0977 403.471 46.0977C398.119 46.0977 393.822 48.0703 390.58 52.0156C387.338 55.9609 385.717 62.0352 385.717 70.2383ZM448.061 101C446.303 101 445.424 100.121 445.424 98.3633V42.1133C445.424 40.3555 446.303 39.4766 448.061 39.4766H452.982C454.74 39.4766 455.619 40.3555 455.619 42.1133V49.1445H455.854C457.729 45.6289 459.936 42.9727 462.475 41.1758C465.014 39.3789 468.178 38.4805 471.967 38.4805C474.467 38.4805 476.225 38.6953 477.24 39.125C478.139 39.4766 478.471 40.0625 478.236 40.8828L476.889 45.6875C476.693 46.3906 476.186 46.6641 475.365 46.5078C473.998 46.2344 472.709 46.0977 471.498 46.0977C466.928 46.0977 463.158 48.168 460.189 52.3086C457.221 56.4102 455.736 62.0156 455.736 69.125V98.3633C455.736 100.121 454.857 101 453.1 101H448.061ZM490.365 101C488.607 101 487.729 100.121 487.729 98.3633V25.2383C487.729 24.457 487.924 23.7148 488.314 23.0117L492.416 15.5703C493.158 14.2031 493.764 13.5195 494.232 13.5195H496.283C497.455 13.5195 498.041 14.2031 498.041 15.5703V98.3633C498.041 100.121 497.162 101 495.404 101H490.365ZM511.342 70.2383C511.342 61.8398 513.373 54.457 517.436 48.0898C521.498 41.6836 527.436 38.4805 535.248 38.4805C539.74 38.4805 543.334 39.2227 546.029 40.707C548.725 42.1914 551.146 44.2227 553.295 46.8008H553.412C553.334 45.6289 553.295 44.4375 553.295 43.2266V17.1523C553.295 15.3945 554.174 14.5156 555.932 14.5156H560.971C562.729 14.5156 563.607 15.3945 563.607 17.1523V98.3633C563.607 100.121 562.729 101 560.971 101H556.049C554.643 101 553.881 100.121 553.764 98.3633L553.412 93.6758H553.295C551.146 96.2539 548.725 98.2852 546.029 99.7695C543.334 101.254 539.74 101.996 535.248 101.996C527.436 101.996 521.498 98.8125 517.436 92.4453C513.373 86.0391 511.342 78.6367 511.342 70.2383ZM522.24 70.2383C522.24 77.4258 523.471 83.2461 525.932 87.6992C528.432 92.1523 532.65 94.3789 538.588 94.3789C542.807 94.3789 546.303 92.9531 549.076 90.1016C551.889 87.2109 553.295 82.8359 553.295 76.9766V63.5C553.295 57.6406 551.889 53.2852 549.076 50.4336C546.303 47.543 542.807 46.0977 538.588 46.0977C532.65 46.0977 528.432 48.3242 525.932 52.7773C523.471 57.2305 522.24 63.0508 522.24 70.2383Z" fill="white"/>
</svg>
